<?xml version="1.0" standalone="no"?>
<!DOCTYPE svg PUBLIC "-//W3C//DTD SVG 20010904//EN"
 "http://www.w3.org/TR/2001/REC-SVG-20010904/DTD/svg10.dtd">
<svg version="1.0" xmlns="http://www.w3.org/2000/svg"
 width="512.000000pt" height="512.000000pt" viewBox="0 0 512.000000 512.000000"
 preserveAspectRatio="xMidYMid meet">
<metadata>
Created by potrace 1.14, written by Peter Selinger 2001-2017
</metadata>
<g transform="translate(0.000000,512.000000) scale(0.100000,-0.100000)"
fill="#000000" stroke="none">
<path d="M2159 4906 c-205 -59 -331 -256 -293 -459 24 -126 105 -232 219 -287
110 -54 221 -57 332 -9 l43 18 0 -229 0 -230 -142 50 c-160 56 -276 90 -328
97 -19 3 -53 8 -75 12 -65 11 -244 4 -337 -13 -579 -109 -988 -610 -973 -1191
3 -101 9 -156 25 -230 5 -22 8 -40 7 -41 -1 -1 -29 -9 -62 -19 -279 -79 -499
-320 -559 -610 -20 -98 -14 -278 13 -373 81 -279 293 -487 576 -563 74 -20
107 -22 461 -24 369 -2 383 -3 427 -24 127 -61 150 -230 45 -328 -55 -52 -60
-52 -577 -53 -318 0 -489 -4 -504 -11 -62 -28 -71 -113 -17 -162 l31 -27 494
0 c535 1 549 2 643 57 86 49 166 158 187 253 45 204 -64 401 -263 472 -53 18
-84 20 -437 22 -421 3 -431 4 -562 68 -204 99 -332 307 -331 540 1 248 169
483 403 563 95 32 97 32 129 -27 58 -109 123 -196 216 -289 125 -126 263 -218
412 -274 l47 -17 0 -67 c-1 -220 193 -407 409 -395 205 12 359 153 387 353 l6
47 650 0 c357 0 649 -2 650 -5 8 -54 12 -74 24 -117 41 -145 189 -264 345
-277 62 -6 163 14 220 43 113 58 201 187 213 312 l4 43 229 1 c287 1 341 14
445 110 90 81 122 162 123 309 1 118 -4 162 -27 265 -53 228 -176 441 -349
605 -82 79 -215 175 -290 211 l-34 16 0 76 c1 94 -9 166 -30 229 -80 237 -274
414 -512 468 -82 19 -180 25 -237 14 -22 -4 -57 -10 -77 -13 -137 -21 -331
-150 -413 -274 -24 -36 -29 -39 -53 -32 -15 4 -117 39 -227 78 l-200 70 -3
265 -2 266 43 -18 c112 -48 221 -45 332 9 224 108 296 399 147 595 -142 188
-395 217 -579 68 l-43 -34 -43 35 c-96 79 -248 113 -358 82z m200 -217 c85
-48 123 -162 83 -250 -27 -58 -60 -88 -122 -109 -164 -56 -314 115 -241 276
46 101 179 140 280 83z m571 17 c113 -46 161 -171 108 -276 -45 -86 -131 -128
-220 -105 -61 15 -92 37 -126 87 -23 35 -27 52 -26 107 0 55 5 73 28 108 50
76 157 111 236 79z m851 -1524 c34 -30 42 -79 20 -121 -12 -22 -60 -51 -86
-51 -26 0 -73 28 -85 51 -19 35 -20 61 -4 94 28 60 103 73 155 27z"/>
</g>
</svg>
